<svg aria-hidden="true" style="position: absolute; width: 0; height: 0; overflow: hidden;" version="1.1" xmlns="http://www.w3.org/2000/svg" xmlns:xlink="http://www.w3.org/1999/xlink">
    <defs>
        <symbol id="icon-logo" viewBox="0 0 75 32">
            <path d="M1.755 16.717l-0.002 0.171q0.001-0.084 0.002-0.168z"></path>
            <path d="M13.651 8.345c0.243-0.013 0.506-0.027 0.726 0.023 0.124 0.028 0.206 0.073 0.277 0.181 0.046 0.249 0.086 0.495 0.095 0.748 0.020 0.537 0.016 1.078 0.011 1.617-0.002 0.245-0.005 0.49-0.005 0.733v4.649c0 0.153 0.004 0.409 0.010 0.722 0.019 1.095 0.050 2.876-0.049 3.269-0.071 0.281-0.214 0.411-0.458 0.555-0.218 0.028-0.445 0.033-0.67 0.038-0.118 0.003-0.235 0.005-0.351 0.011-1.086 0.055-2.232 0.167-3.229 0.628-0.267 0.123-0.534 0.269-0.769 0.447-0.12 0.092-0.255 0.219-0.398 0.354-0.357 0.338-0.77 0.728-1.159 0.75-0.449 0.025-0.874-0.359-1.266-0.713-0.187-0.168-0.367-0.33-0.537-0.438-0.414-0.262-0.883-0.463-1.347-0.615-0.766-0.251-1.578-0.379-2.382-0.427-0.121-0.007-0.247-0.007-0.372-0.006-0.233 0.001-0.469 0.002-0.689-0.047-0.192-0.043-0.315-0.14-0.459-0.267-0.105-0.251-0.138-0.561-0.151-0.831-0.023-0.483-0.017-0.972-0.011-1.459 0.003-0.216 0.005-0.432 0.005-0.647l0.003-4.112-0.003-3.112c-0-0.136-0.006-0.283-0.012-0.436-0.016-0.413-0.033-0.864 0.056-1.216 0.049-0.194 0.162-0.279 0.324-0.383 1.784-0.116 3.732 0.255 5.299 1.127 0.521 0.29 0.99 0.644 1.464 1.003 0.266-0.199 0.535-0.398 0.81-0.585 1.475-1.008 3.232-1.506 5.012-1.55 0.073-0.002 0.15-0.006 0.228-0.010zM13.445 9.742c-0.216 0.002-0.445-0.012-0.659 0.017-1.464 0.132-3.343 0.668-4.337 1.834-0.037 0.044-0.077 0.094-0.115 0.145l-0.006 0.009-0.003 9.156c0.163-0.118 0.324-0.24 0.489-0.355 1.368-0.817 3.079-0.957 4.638-1.070 0-3.243 0.043-6.493-0.007-9.736zM1.779 9.743c-0.034 1.355-0.026 2.715-0.019 4.073 0.003 0.557 0.006 1.113 0.006 1.668 0 0.408-0.005 0.82-0.010 1.232v0.003c-0.012 0.912-0.023 1.829 0.023 2.731 1.801 0.155 3.61 0.333 5.11 1.434-0.009-3.039 0.008-6.077 0.050-9.115-1.18-1.245-3.025-1.981-4.727-2.029-0.050-0.001-0.108-0.002-0.167-0.002-0.093 0-0.186 0.002-0.279 0.005l0.013-0z"></path>
            <path d="M14.654 8.549l0.214-0.039-0.008-0.043-0.024-0.037-0.182 0.119zM14.754 16.297h-0.217v0zM14.257 20.843l0.027 0.215 0.044-0.006 0.039-0.023-0.11-0.187zM13.236 20.892l-0.011-0.217h-0zM7.681 23.071l0.012 0.217h0l-0.012-0.217zM4.529 21.304l0.068-0.206h-0zM2.148 20.877l-0.013 0.217h0zM1.086 20.824l-0.047 0.212 0 0zM0.627 20.557l-0.2 0.084 0.019 0.046 0.037 0.033zM0.473 13.508l0.217 0v-0zM0.838 8.361l-0.014-0.217-0.056 0.004-0.047 0.030zM7.601 10.491l-0.131 0.173 0.13 0.098 0.131-0.097zM13.423 8.355l0.005 0.217h0zM13.445 9.742l0.217-0.003-0.003-0.216-0.216 0.002zM12.786 9.758l0.020 0.216 0.009-0.001zM8.45 11.592l-0.165-0.141-0.001 0.001 0.166 0.14zM8.328 11.746l-0.174-0.13-0.044 0.058-0 0.072zM8.325 20.902l-0.217-0-0 0.427 0.345-0.251-0.128-0.176zM8.814 20.547l-0.111-0.186-0.006 0.004-0.006 0.004zM13.452 19.478l0.016 0.217 0.202-0.015v-0.202zM1.779 9.743l-0.007-0.217-0.205 0.007-0.005 0.205zM1.755 16.717l-0.217-0.003v0.003zM1.755 16.72l0.217 0.003v-0.003zM1.778 19.451l-0.217 0.011 0.010 0.189 0.189 0.016zM6.888 20.885l-0.128 0.175 0.347 0.255-0.001-0.43-0.217 0.001zM6.938 11.77l0.217 0.003 0.001-0.088-0.061-0.064zM2.211 9.741l0.006-0.217-0.001-0zM13.651 8.345l0.012 0.217c0.251-0.013 0.482-0.024 0.667 0.018l0.095-0.424c-0.255-0.057-0.549-0.040-0.785-0.027zM14.377 8.368l-0.047 0.212c0.048 0.011 0.073 0.022 0.090 0.032 0.015 0.009 0.032 0.024 0.053 0.056l0.364-0.238c-0.050-0.076-0.109-0.139-0.184-0.186-0.073-0.046-0.151-0.072-0.227-0.089zM14.654 8.549l-0.214 0.039c0.045 0.248 0.083 0.481 0.092 0.717l0.434-0.016c-0.010-0.27-0.053-0.529-0.099-0.779zM14.749 9.297l-0.217 0.008c0.020 0.531 0.015 1.067 0.010 1.607l0.434 0.004c0.005-0.539 0.010-1.085-0.011-1.627l-0.217 0.008zM14.76 10.915l-0.217-0.002c-0.002 0.244-0.005 0.49-0.005 0.736h0.434c0-0.242 0.003-0.486 0.005-0.731l-0.217-0.002zM14.754 11.648h-0.217v4.649h0.434v-4.649zM14.754 16.297l-0.217 0c0 0.155 0.004 0.413 0.009 0.726l0.434-0.008c-0.005-0.313-0.009-0.568-0.009-0.719l-0.217 0zM14.764 17.019l-0.217 0.004c0.009 0.548 0.022 1.265 0.020 1.893-0.001 0.314-0.006 0.605-0.016 0.84-0.011 0.242-0.027 0.406-0.046 0.479l0.421 0.106c0.031-0.123 0.048-0.329 0.058-0.566 0.011-0.244 0.016-0.541 0.017-0.858 0.002-0.634-0.010-1.355-0.020-1.902l-0.217 0.004zM14.715 20.289l-0.211-0.053c-0.028 0.112-0.067 0.182-0.117 0.238-0.053 0.060-0.126 0.114-0.241 0.182l0.221 0.374c0.128-0.076 0.249-0.158 0.347-0.269 0.101-0.115 0.169-0.25 0.212-0.42zM14.257 20.843l-0.027-0.215c-0.205 0.026-0.421 0.031-0.648 0.036l0.010 0.434c0.223-0.005 0.462-0.011 0.693-0.040zM13.587 20.881l-0.005-0.217c-0.116 0.003-0.238 0.005-0.357 0.011l0.011 0.217 0.011 0.217c0.111-0.006 0.225-0.008 0.345-0.010zM13.236 20.892l-0.011-0.217c-1.087 0.055-2.271 0.167-3.309 0.647l0.182 0.394c0.956-0.442 2.065-0.553 3.149-0.608l-0.011-0.217zM10.007 21.519l-0.091-0.197c-0.275 0.127-0.558 0.28-0.809 0.471l0.263 0.346c0.217-0.165 0.47-0.303 0.729-0.423zM9.238 21.966l-0.132-0.173c-0.131 0.1-0.275 0.236-0.416 0.369l0.299 0.315c0.146-0.138 0.272-0.256 0.381-0.339zM8.839 22.321l-0.149-0.158c-0.181 0.171-0.363 0.343-0.546 0.476-0.186 0.135-0.345 0.208-0.476 0.215l0.012 0.217 0.012 0.217c0.258-0.014 0.5-0.147 0.707-0.297 0.21-0.152 0.413-0.345 0.589-0.512zM7.681 23.071l-0.012-0.217c-0.158 0.009-0.33-0.054-0.524-0.18s-0.386-0.298-0.585-0.478l-0.291 0.323c0.193 0.174 0.411 0.371 0.639 0.52s0.494 0.265 0.784 0.249zM6.414 22.357l0.146-0.161c-0.183-0.165-0.377-0.34-0.567-0.46l-0.232 0.367c0.152 0.096 0.317 0.243 0.508 0.415l0.146-0.161zM5.877 21.92l0.116-0.184c-0.433-0.273-0.919-0.482-1.396-0.638l-0.135 0.413c0.452 0.148 0.904 0.343 1.299 0.593l0.116-0.184zM4.529 21.304l0.067-0.206c-0.788-0.258-1.619-0.389-2.437-0.438l-0.013 0.217-0.013 0.217c0.79 0.047 1.583 0.173 2.327 0.417zM2.148 20.877l0.013-0.217c-0.13-0.008-0.262-0.007-0.386-0.006l0.001 0.217 0.001 0.217c0.128-0 0.246-0.001 0.359 0.006zM1.775 20.871l-0.001-0.217c-0.238 0.001-0.449 0.001-0.642-0.042l-0.094 0.424c0.248 0.055 0.509 0.053 0.737 0.052zM1.086 20.824l0.047-0.212c-0.134-0.030-0.223-0.095-0.362-0.218l-0.288 0.325c0.149 0.132 0.307 0.262 0.556 0.317zM0.627 20.557l0.2-0.084c-0.090-0.213-0.121-0.49-0.134-0.757l-0.434 0.021c0.013 0.273 0.046 0.616 0.168 0.905zM0.476 19.726l0.217-0.010c-0.023-0.476-0.017-0.958-0.011-1.446l-0.434-0.005c-0.006 0.486-0.012 0.982 0.012 1.472zM0.464 18.267l0.217 0.003c0.003-0.216 0.005-0.433 0.005-0.649l-0.434-0c-0 0.213-0.002 0.428-0.005 0.644zM0.47 17.62l0.217 0 0.003-4.112-0.434-0-0.003 4.112zM0.473 13.508l0.217-0-0.003-3.112-0.434 0 0.003 3.112 0.217-0zM0.47 10.396l0.217-0c-0-0.141-0.006-0.293-0.012-0.444l-0.434 0.017c0.006 0.154 0.012 0.297 0.012 0.427zM0.457 9.96l0.217-0.008c-0.016-0.423-0.031-0.838 0.050-1.154l-0.421-0.107c-0.099 0.389-0.079 0.875-0.063 1.278l0.217-0.008zM0.514 8.744l0.21 0.054c0.028-0.109 0.077-0.156 0.23-0.253l-0.234-0.366c-0.171 0.109-0.346 0.234-0.417 0.512l0.21 0.054zM0.838 8.361l0.014 0.217c1.748-0.113 3.654 0.251 5.18 1.1l0.211-0.38c-1.608-0.895-3.599-1.272-5.419-1.154l0.014 0.217zM6.137 9.488l-0.106 0.19c0.505 0.281 0.962 0.626 1.438 0.986l0.262-0.347c-0.472-0.357-0.953-0.721-1.489-1.019zM7.601 10.491l0.13 0.174c0.266-0.199 0.532-0.395 0.803-0.58l-0.245-0.359c-0.279 0.19-0.551 0.392-0.817 0.59zM8.411 9.906l0.123 0.179c1.437-0.982 3.151-1.469 4.895-1.512l-0.005-0.217-0.005-0.217c-1.816 0.045-3.615 0.553-5.129 1.588l0.123 0.179zM13.423 8.355l0.005 0.217c0.076-0.002 0.157-0.007 0.234-0.011l-0.023-0.434c-0.080 0.004-0.153 0.008-0.222 0.010zM13.445 9.742l-0.002-0.217c-0.195 0.002-0.454-0.012-0.686 0.018l0.029 0.215 0.029 0.215c0.196-0.026 0.395-0.013 0.632-0.015zM12.786 9.758l-0.020-0.216c-0.748 0.068-1.604 0.238-2.402 0.543-0.797 0.304-1.551 0.746-2.080 1.367l0.331 0.282c0.465-0.546 1.147-0.954 1.904-1.243 0.755-0.288 1.571-0.451 2.287-0.516zM8.45 11.592l-0.166-0.14c-0.039 0.046-0.082 0.1-0.122 0.154l-0.007 0.009 0.347 0.261c0.038-0.050 0.075-0.098 0.114-0.144zM8.328 11.746l-0.217-0-0.003 9.156 0.434 0 0.003-9.156zM8.325 20.902l0.128 0.176c0.168-0.122 0.322-0.239 0.485-0.352l-0.248-0.357c-0.167 0.116-0.335 0.243-0.493 0.358zM8.814 20.547l0.111 0.186c1.316-0.786 2.974-0.927 4.542-1.039l-0.016-0.217-0.016-0.217c-1.55 0.111-3.314 0.252-4.734 1.1zM13.452 19.478h0.217c0-3.239 0.043-6.495-0.007-9.739l-0.434 0.007c0.050 3.241 0.007 6.485 0.007 9.733zM1.779 9.743l-0.217-0.005c-0.034 1.359-0.026 2.722-0.019 4.079l0.434-0.002c-0.007-1.358-0.014-2.715 0.019-4.066l-0.217-0.005zM1.76 13.816l-0.217 0.001c0.003 0.557 0.006 1.112 0.006 1.667l0.434-0c-0-0.556-0.003-1.113-0.006-1.669zM1.766 15.485h-0.217c0 0.407-0.005 0.817-0.010 1.229l0.434 0.006c0.005-0.412 0.011-0.825 0.010-1.235zM1.755 16.717h-0.217v0.003h0.434v-0.003zM1.755 16.72l-0.217-0.003c-0.012 0.911-0.023 1.835 0.023 2.745l0.434-0.022c-0.045-0.894-0.034-1.804-0.022-2.717l-0.217-0.003zM1.778 19.451l-0.019 0.216c1.81 0.156 3.556 0.333 5 1.393l0.257-0.35c-1.557-1.142-3.427-1.321-5.22-1.475zM6.888 20.885l0.217-0.001c-0.009-3.037 0.008-6.075 0.050-9.112l-0.434-0.006c-0.034 2.241-0.053 4.886-0.053 7.536 0 0.557 0.001 1.113 0.003 1.669l-0-0.086zM6.938 11.77l0.158-0.149c-1.224-1.292-3.127-2.047-4.879-2.096l-0.006 0.217-0.006 0.217c1.652 0.046 3.44 0.762 4.576 1.961zM2.211 9.741l0.005-0.217c-0.148-0.003-0.296-0.002-0.444 0.003l0.007 0.217 0.007 0.217c0.14-0.005 0.281-0.005 0.421-0.003l0.005-0.217zM20.32 9.345c1.74-0.030 4.67-0.081 5.635 0.288 0.737 0.282 1.364 0.838 1.685 1.564 0.316 0.716 0.339 1.663 0.052 2.392-0.306 0.778-0.869 1.107-1.595 1.421 0.056 0.020 0.113 0.040 0.17 0.060 0.156 0.054 0.313 0.108 0.459 0.181 0.668 0.341 1.176 0.915 1.423 1.614l0.006 0.020c0.295 0.871 0.182 1.847-0.218 2.662-0.298 0.514-0.716 0.911-1.233 1.201-0.455 0.255-0.905 0.356-1.419 0.424-0.781 0.104-5.312 0.172-5.881-0.022-0.077-0.026-0.153-0.055-0.188-0.131-0.084-0.182-0.095-0.46-0.104-0.674l-0.003-0.059c-0.055-1.218-0.037-2.452-0.019-3.681 0.008-0.547 0.015-1.093 0.017-1.635 0.001-0.523-0.005-1.050-0.012-1.577-0.013-1.028-0.026-2.061 0.021-3.078 0.010-0.22 0.029-0.466 0.108-0.674 0.061-0.158 0.138-0.213 0.287-0.283 0.218-0.002 0.495-0.007 0.81-0.012zM24.67 15.956c-0.634-0.151-2.636-0.046-3.398-0.046l0.001 3.476c0.895 0.002 2.842 0.115 3.609-0.082 0.283-0.073 0.508-0.186 0.723-0.384 0.345-0.407 0.524-0.817 0.472-1.362-0.046-0.485-0.253-0.897-0.63-1.208-0.216-0.182-0.477-0.318-0.763-0.391l-0.013-0.003zM21.904 11.108c-0.241 0.008-0.458 0.014-0.633 0.015l0.002 3.094c0.203 0.001 0.451 0.007 0.72 0.014 0.892 0.023 2.031 0.052 2.625-0.1 0.277-0.071 0.506-0.183 0.727-0.363 0.291-0.352 0.449-0.754 0.411-1.216-0.033-0.407-0.227-0.805-0.551-1.056-0.611-0.474-2.213-0.422-3.302-0.387zM38.271 16.265c-0.335-2.511-2.642-4.275-5.153-3.94-2.509 0.335-4.271 2.641-3.937 5.15s2.638 4.273 5.148 3.941c2.511-0.333 4.277-2.639 3.943-5.15zM33.411 14.267c0.51-0.025 0.959-0.017 1.411 0.259 0.507 0.309 0.823 0.838 0.96 1.405 0.195 0.804 0.149 1.912-0.303 2.628-0.324 0.513-0.776 0.739-1.348 0.865-0.549 0.055-1.093 0.003-1.564-0.312-0.496-0.333-0.785-0.876-0.897-1.451-0.159-0.817-0.109-1.878 0.384-2.577 0.339-0.48 0.79-0.716 1.356-0.817zM48.111 16.237c-0.347-2.511-2.666-4.262-5.176-3.908-2.5 0.352-4.242 2.661-3.897 5.161s2.649 4.25 5.15 3.911c2.511-0.34 4.269-2.654 3.923-5.165zM43.216 14.268c0.496-0.041 0.975-0.025 1.421 0.224 0.529 0.296 0.852 0.817 1.003 1.391 0.216 0.825 0.174 1.89-0.279 2.634-0.32 0.527-0.777 0.773-1.361 0.904-0.547 0.071-1.085 0.010-1.555-0.299-0.502-0.33-0.793-0.867-0.915-1.443-0.172-0.815-0.116-1.864 0.359-2.572 0.322-0.481 0.771-0.726 1.326-0.84zM49.939 8.974c0.028-0.003 0.064-0.005 0.1-0.007l0.003-0c0.341-0.012 1.099-0.078 1.33 0.234 0.099 0.133 0.113 0.41 0.125 0.574 0.052 0.692 0.010 1.415 0.010 2.11l0.001 4.091c0.484-0.575 1.041-1.102 1.551-1.655 0.504-0.547 0.988-1.175 1.547-1.662 0.133-0.116 0.234-0.177 0.406-0.224 0.357-0.097 1.649-0.169 1.921 0.025 0.069 0.049 0.129 0.145 0.123 0.233-0.024 0.389-2.597 2.926-3.045 3.37 0.825 1.199 1.657 2.393 2.496 3.582 0.209 0.303 0.803 0.954 0.726 1.33-0.017 0.082-0.081 0.153-0.153 0.193-0.386 0.212-1.868 0.073-2.33-0.078-0.331-0.332-0.6-0.813-0.866-1.199l-1.61-2.347-0.769 0.669c-0.003 0.616 0.181 2.427-0.215 2.839-0.177 0.185-0.409 0.199-0.65 0.202-0.368 0.004-1.081 0.065-1.35-0.198-0.069-0.709-0.046-1.427-0.047-2.138l-0.001-3.039 0-4.164c0-0.74-0.026-1.491 0.008-2.23 0.005-0.099 0.007-0.185 0.066-0.27 0.142-0.205 0.398-0.209 0.623-0.239zM65.59 12.355c0.486-0.011 1.453-0.118 1.89 0.063 0.164 0.068 0.238 0.235 0.311 0.388 0.311 0.648 0.515 1.396 0.765 2.073 0.436 1.178 0.905 2.344 1.347 3.519 0.257-0.663 2.030-5.606 2.321-5.853 0.142-0.121 0.413-0.147 0.59-0.152 0.374-0.011 1.073-0.094 1.356 0.168 0.072 0.168 0.062 0.261 0.021 0.441-0.145 0.63-0.454 1.286-0.68 1.893l-1.455 3.91-0.983 2.666c-0.198 0.538-0.372 1.113-0.628 1.625-0.143 0.285-0.317 0.552-0.535 0.785-0.523 0.56-1.206 0.801-1.959 0.827-0.323 0.011-0.876 0.071-1.125-0.159-0.159-0.322-0.172-1.071-0.070-1.418 0.1-0.337 0.839-0.273 1.137-0.441 0.48-0.27 0.61-0.801 0.734-1.295-0.385-1.165-3.285-8.287-3.257-8.689 0.012-0.175 0.095-0.25 0.222-0.351zM60.825 12.321c0.243-0.037 0.51-0.027 0.758-0.024 0.983 0.010 2.083 0.217 2.791 0.957 0.325 0.34 0.563 0.854 0.527 1.333-0.006 0.082-0.029 0.199-0.098 0.248-0.353 0.25-1.317 0.201-1.737 0.144-0.372-0.050-0.344-0.299-0.573-0.572-0.253-0.3-0.623-0.447-1.007-0.475-0.428-0.031-0.97 0.108-1.289 0.409-0.141 0.133-0.289 0.475-0.266 0.666 0.099 0.835 2.452 0.943 3.129 1.113 0.574 0.145 1.165 0.36 1.624 0.746 0.435 0.367 0.632 0.866 0.676 1.425 0.054 0.689-0.146 1.348-0.603 1.869-0.794 0.906-1.951 1.172-3.102 1.256-0.885 0.030-1.837-0.091-2.633-0.5-0.577-0.297-1.099-0.76-1.291-1.4-0.079-0.261-0.132-0.567 0.007-0.815 0.402-0.315 1.501-0.192 1.99-0.174 0.165 0.251 0.265 0.545 0.49 0.752 0.379 0.35 0.939 0.455 1.44 0.43 0.41-0.020 0.846-0.137 1.12-0.462 0.152-0.179 0.239-0.41 0.217-0.646-0.091-0.947-2.424-0.944-3.145-1.11-0.521-0.12-1.053-0.331-1.475-0.666-0.445-0.353-0.729-0.828-0.783-1.397-0.006-0.069-0.010-0.149-0.010-0.229 0-0.645 0.229-1.237 0.61-1.699l-0.004 0.005c0.669-0.81 1.63-1.085 2.637-1.184z"></path>
        </symbol>
        <symbol id="icon-check" viewBox="0 0 32 32">
            <path d="M13.333 20.781l-4.391-4.391-1.885 1.885 6.276 6.276 12.943-12.943-1.885-1.885z"></path>
        </symbol>
        <symbol id="icon-chevron-down" viewBox="0 0 32 32">
            <path d="M21.724 11.057l-5.724 5.724-5.724-5.724-1.885 1.885 7.609 7.609 7.609-7.609z"></path>
        </symbol>
        <symbol id="icon-chevron-left" viewBox="0 0 32 32">
            <path d="M17.724 8.391l-7.609 7.609 7.609 7.609 1.885-1.885-5.724-5.724 5.724-5.724z"></path>
        </symbol>
        <symbol id="icon-chevron-right" viewBox="0 0 32 32">
            <path d="M12.943 22.6l7.609-7.609-7.609-7.609-1.885 1.885 5.724 5.724-5.724 5.724z"></path>
        </symbol>
        <symbol id="icon-chevron-up" viewBox="0 0 32 32">
            <path d="M8.391 19.057l1.885 1.885 5.724-5.724 5.724 5.724 1.885-1.885-7.609-7.609z"></path>
        </symbol>
        <symbol id="icon-down-arrow-alt" viewBox="0 0 32 32">
            <path d="M24.943 16.943l-1.885-1.885-5.724 5.724v-12.781h-2.667v12.781l-5.724-5.724-1.885 1.885 8.943 8.943z"></path>
        </symbol>
        <symbol id="icon-envelope" viewBox="0 0 32 32">
            <path d="M26.667 5.333h-21.333c-1.471 0-2.667 1.196-2.667 2.667v16c0 1.471 1.196 2.667 2.667 2.667h21.333c1.471 0 2.667-1.196 2.667-2.667v-16c0-1.471-1.196-2.667-2.667-2.667zM26.667 8v0.681l-10.667 8.297-10.667-8.296v-0.683zM5.333 24v-11.941l9.848 7.66c0.223 0.176 0.508 0.283 0.819 0.283s0.596-0.107 0.821-0.285l-0.003 0.002 9.848-7.66 0.003 11.941z"></path>
        </symbol>
        <symbol id="icon-left-arrow-alt" viewBox="0 0 32 32">
            <path d="M16.943 23.057l-5.724-5.724h12.781v-2.667h-12.781l5.724-5.724-1.885-1.885-8.943 8.943 8.943 8.943z"></path>
        </symbol>
        <symbol id="icon-map" viewBox="0 0 32 32">
            <path d="M16 18.667c2.941 0 5.333-2.392 5.333-5.333s-2.392-5.333-5.333-5.333-5.333 2.392-5.333 5.333 2.392 5.333 5.333 5.333zM16 10.667c1.471 0 2.667 1.196 2.667 2.667s-1.196 2.667-2.667 2.667-2.667-1.196-2.667-2.667 1.196-2.667 2.667-2.667z"></path>
            <path d="M15.227 29.085c0.215 0.155 0.483 0.247 0.773 0.247s0.558-0.093 0.777-0.25l-0.004 0.003c0.405-0.287 9.933-7.165 9.893-15.752 0-5.881-4.785-10.667-10.667-10.667s-10.667 4.785-10.667 10.66c-0.039 8.593 9.488 15.472 9.893 15.759zM16 5.333c4.413 0 8 3.588 8 8.007 0.028 5.917-5.851 11.231-8 12.973-2.147-1.744-8.027-7.059-8-12.98 0-4.412 3.588-8 8-8z"></path>
        </symbol>
        <symbol id="burger-menu" viewBox="0 0 32 32">
            <path d="M5.333 8h21.333v2.667h-21.333zM10.667 14.667h16v2.667h-16zM17.333 21.333h9.333v2.667h-9.333z"></path>
        </symbol>
        <symbol id="icon-minus" viewBox="0 0 32 32">
            <path d="M6.667 14.667h18.667v2.667h-18.667z"></path>
        </symbol>
        <symbol id="icon-phone" viewBox="0 0 32 32">
            <path d="M23.609 16.391c-0.241-0.241-0.575-0.39-0.943-0.39s-0.701 0.149-0.943 0.39l-2.124 2.125c-0.985-0.293-2.824-0.96-3.989-2.125s-1.832-3.004-2.125-3.989l2.125-2.125c0.241-0.241 0.39-0.575 0.39-0.943s-0.149-0.701-0.39-0.943l-5.333-5.333c-0.241-0.241-0.575-0.39-0.943-0.39s-0.701 0.149-0.943 0.39l-3.617 3.616c-0.507 0.507-0.792 1.203-0.781 1.913 0.031 1.899 0.533 8.493 5.731 13.691s11.792 5.699 13.693 5.731h0.036c0.704 0 1.369-0.277 1.873-0.781l3.616-3.616c0.241-0.241 0.39-0.575 0.39-0.943s-0.149-0.701-0.39-0.943v0zM23.44 25.34c-1.664-0.028-7.357-0.475-11.831-4.949-4.488-4.488-4.923-10.201-4.949-11.832l2.673-2.673 3.448 3.448-1.724 1.724c-0.242 0.241-0.391 0.575-0.391 0.943 0 0.097 0.010 0.191 0.030 0.282l-0.002-0.009c0.032 0.153 0.815 3.789 3.028 6.003s5.849 2.996 6.003 3.028c0.082 0.018 0.177 0.028 0.274 0.028 0.368 0 0.701-0.149 0.942-0.39l1.725-1.724 3.448 3.448z"></path>
        </symbol>
        <symbol id="icon-plus" viewBox="0 0 32 32">
            <path d="M25.333 14.667h-8v-8h-2.667v8h-8v2.667h8v8h2.667v-8h8z"></path>
        </symbol>
        <symbol id="icon-right-arrow-alt" viewBox="0 0 32 32">
            <path d="M15.057 23.057l1.885 1.885 8.943-8.943-8.943-8.943-1.885 1.885 5.724 5.724h-12.781v2.667h12.781z"></path>
        </symbol>
        <symbol id="icon-star" viewBox="0 0 32 32">
            <path d="M8.688 19.097l-1.987 8.603c-0.023 0.092-0.036 0.197-0.036 0.306 0 0.735 0.596 1.331 1.331 1.331 0.277 0 0.535-0.085 0.748-0.23l-0.005 0.003 7.26-4.84 7.26 4.84c0.208 0.14 0.463 0.223 0.738 0.223 0.737 0 1.335-0.598 1.335-1.335 0-0.129-0.018-0.254-0.053-0.372l0.002 0.009-2.439-8.533 6.048-5.443c0.271-0.245 0.441-0.598 0.441-0.991 0-0.699-0.538-1.273-1.223-1.329l-0.005-0-7.601-0.605-3.289-7.281c-0.212-0.469-0.676-0.789-1.215-0.789s-1.002 0.32-1.211 0.781l-0.003 0.008-3.289 7.281-7.601 0.604c-0.69 0.056-1.228 0.63-1.228 1.329 0 0.374 0.154 0.712 0.402 0.955l0 0zM12.492 13.329c0.495-0.041 0.91-0.346 1.106-0.773l0.003-0.008 2.399-5.308 2.399 5.308c0.2 0.435 0.614 0.741 1.105 0.781l0.005 0 5.296 0.42-4.361 3.925c-0.379 0.341-0.529 0.867-0.391 1.357l1.671 5.847-4.981-3.321c-0.208-0.141-0.464-0.225-0.739-0.225s-0.532 0.084-0.744 0.228l0.005-0.003-5.205 3.471 1.4-6.061c0.022-0.090 0.034-0.193 0.034-0.299 0-0.374-0.154-0.712-0.402-0.954l-0-0-4.051-3.949z"></path>
        </symbol>
        <symbol id="icon-up-arrow-alt" viewBox="0 0 32 32">
            <path d="M14.667 11.219v12.781h2.667v-12.781l5.724 5.724 1.885-1.885-8.943-8.943-8.943 8.943 1.885 1.885z"></path>
        </symbol>
        <symbol id="icon-x" viewBox="0 0 32 32">
            <path d="M21.589 8.459l-5.657 5.656-5.656-5.656-1.885 1.885 5.656 5.656-5.656 5.656 1.885 1.885 5.656-5.656 5.657 5.656 1.885-1.885-5.656-5.656 5.656-5.656z"></path>
        </symbol>
    </defs>
</svg>